<?xml version="1.0" encoding="UTF-8"?><svg id="Layer_1" xmlns="http://www.w3.org/2000/svg" viewBox="0 0 48.75 48.75"><defs><style>.cls-1{fill:#fff;}</style></defs><path id="Path_7" class="cls-1" d="M29.68,37.08c-.89,.88-2.31,.88-3.2,0l-11.18-11.21c-.85-.85-.88-2.23-.07-3.12l11.01-11.05c.88-.88,2.31-.89,3.19,0,.88,.88,.89,2.31,0,3.19h0l-9.36,9.5,9.6,9.5c.88,.86,.89,2.28,.03,3.16-.01,.01-.02,.02-.03,.03Z"/><path id="Path_8" class="cls-1" d="M48.75,24.37C48.75,10.91,37.84,0,24.37,0S0,10.91,0,24.37s10.91,24.37,24.37,24.37h0c13.46,0,24.37-10.91,24.37-24.37,0,0,0,0,0,0Zm-3.75,0c0,11.39-9.22,20.62-20.61,20.62-5.47,0-10.72-2.17-14.59-6.04C1.7,30.94,1.63,17.89,9.64,9.8c8.01-8.09,21.06-8.17,29.15-.16,.05,.05,.11,.1,.16,.16,3.89,3.85,6.06,9.11,6.05,14.58Z"/></svg>