<?xml version="1.0" encoding="UTF-8"?><svg id="Layer_1" xmlns="http://www.w3.org/2000/svg" viewBox="0 0 31.5 31.5"><defs><style>.cls-1{fill:#fff;}</style></defs><path id="Icon_ionic-logo-facebook" class="cls-1" d="M29.76,0H1.74C.78,0,0,.78,0,1.74V29.76c0,.96,.78,1.74,1.74,1.74H15.75v-12.47h-3.76v-4.59h3.76v-3.4c0-4.07,2.82-6.28,6.46-6.28,1.74,0,3.61,.13,4.04,.19v4.26h-2.9c-1.98,0-2.35,.94-2.35,2.31v2.93h4.71l-.61,4.59h-4.09v12.46h8.76c.96,0,1.74-.78,1.74-1.74V1.74c0-.96-.78-1.74-1.74-1.74Z"/></svg>