<?xml version="1.0" encoding="UTF-8"?><svg id="Layer_1" xmlns="http://www.w3.org/2000/svg" viewBox="0 0 29.25 28.12"><defs><style>.cls-1{opacity:1;}.cls-2{fill:#666;}</style></defs><g id="Icon_material-photo-camera" class="cls-1"><path id="Icon_ionic-ios-heart-empty" class="cls-2" d="M21.38,0h-.07c-2.7,.01-5.21,1.39-6.68,3.66C13.16,1.39,10.65,.01,7.94,0h-.07C3.52,.04,0,3.59,0,7.95c.18,3.37,1.34,6.62,3.36,9.33,4.23,5.79,11.26,10.85,11.26,10.85,0,0,7.03-5.06,11.26-10.85,2.02-2.71,3.19-5.96,3.36-9.33,0-4.36-3.52-7.9-7.88-7.94Zm2.92,16.12c-2.81,3.57-6.06,6.78-9.67,9.53-3.61-2.76-6.86-5.97-9.68-9.54-1.77-2.37-2.8-5.21-2.98-8.16,0-3.28,2.64-5.94,5.92-5.97h.06c1.01,0,2.01,.26,2.89,.76,.86,.48,1.6,1.17,2.14,2,.6,.91,1.82,1.16,2.74,.56,.22-.15,.42-.34,.56-.56,.54-.83,1.28-1.51,2.14-2,.88-.5,1.88-.76,2.89-.76h.06c3.28,.03,5.92,2.69,5.92,5.97-.19,2.95-1.23,5.79-2.99,8.17h0Z"/></g></svg>