<?xml version="1.0" encoding="UTF-8"?><svg id="Layer_1" xmlns="http://www.w3.org/2000/svg" viewBox="0 0 31.07 27.95"><defs><style>.cls-1{fill:#666;}</style></defs><path class="cls-1" d="M29.57,0h-13.1c-.05,0-.1,.01-.16,.02-.05,0-.1-.02-.16-.02-.83,0-1.5,.67-1.5,1.5V9.98H1.5c-.83,0-1.5,.67-1.5,1.5v14.97c0,.83,.67,1.5,1.5,1.5H29.57c.83,0,1.5-.67,1.5-1.5V1.5c0-.83-.67-1.5-1.5-1.5Zm-11.91,3h10.41v6.98h-1.62c-.83,0-1.5,.67-1.5,1.5s.67,1.5,1.5,1.5h1.62v11.97H12.36v-1.62c0-.83-.67-1.5-1.5-1.5s-1.5,.67-1.5,1.5v1.62H3V12.98h6.36v2.24c0,.83,.67,1.5,1.5,1.5s1.5-.67,1.5-1.5v-2.24h6.61c.83,0,1.5-.67,1.5-1.5s-.67-1.5-1.5-1.5h-1.31V3Z"/></svg>