<?xml version="1.0" encoding="UTF-8"?><svg id="Layer_1" xmlns="http://www.w3.org/2000/svg" viewBox="0 0 21.8 34.87"><defs><style>.cls-1{fill:#666;}</style></defs><path id="Icon_metro-location" class="cls-1" d="M10.9,0C4.88,0,0,4.88,0,10.9c0,10.9,10.9,23.97,10.9,23.97,0,0,10.9-13.08,10.9-23.97C21.8,4.88,16.92,0,10.9,0h0Zm0,17.57c-3.69,0-6.67-2.99-6.67-6.67s2.99-6.67,6.67-6.67,6.67,2.99,6.67,6.67h0c0,3.69-2.99,6.67-6.67,6.68h0Zm-4.22-6.68c0-2.33,1.89-4.22,4.22-4.22s4.22,1.89,4.22,4.22-1.89,4.22-4.22,4.22h0c-2.33,0-4.22-1.89-4.22-4.22Z"/></svg>