<?xml version="1.0" encoding="UTF-8"?><svg id="Layer_1" xmlns="http://www.w3.org/2000/svg" viewBox="0 0 145.24 28.5"><defs><style>.cls-1{fill:#fff;}.cls-2{isolation:isolate;}</style></defs><g class="cls-2"><path class="cls-1" d="M10.6,1.9h3.5V28.5h-3.5V15.54H3.53v12.96H0V1.9H3.53V12.01h7.07V1.9Z"/><path class="cls-1" d="M28.12,9.5c.76,0,1.41,.27,1.94,.82s.8,1.2,.8,1.96v13.45c0,.76-.27,1.41-.8,1.96-.53,.55-1.18,.82-1.94,.82h-5.17c-.79,0-1.44-.27-1.98-.82-.53-.54-.8-1.2-.8-1.96V12.27c0-.76,.27-1.41,.8-1.96s1.19-.82,1.98-.82h5.17Zm-.8,14.06V14.44c0-.38-.14-.7-.42-.97-.28-.27-.61-.4-.99-.4h-.8c-.38,0-.7,.13-.97,.4-.27,.27-.4,.59-.4,.97v9.12c0,.38,.13,.7,.4,.97,.27,.27,.59,.4,.97,.4h.8c.38,0,.71-.13,.99-.4,.28-.27,.42-.59,.42-.97Z"/><path class="cls-1" d="M50.81,9.5c.76,0,1.41,.27,1.94,.82,.53,.54,.8,1.2,.8,1.96V28.5h-3.53V14.44c0-.38-.14-.7-.42-.97-.28-.27-.61-.4-.99-.4h-2.17v15.43h-3.57V14.44c0-.38-.14-.7-.42-.97-.28-.27-.61-.4-.99-.4h-2.17v15.43h-3.57V9.5h15.09Z"/><path class="cls-1" d="M68.59,18.01c0,.76-.27,1.41-.8,1.96-.53,.54-1.19,.82-1.98,.82h-4.37v2.77c0,.38,.13,.7,.4,.97s.6,.4,1.01,.4h4.94l.8,3.57h-7.94c-.76,0-1.41-.27-1.96-.82-.54-.54-.82-1.2-.82-1.96V12.24c0-.76,.27-1.41,.82-1.94,.54-.53,1.2-.8,1.96-.8h5.17c.79,0,1.44,.27,1.98,.8s.8,1.18,.8,1.94v5.78Zm-3.57-3.57c0-.38-.13-.7-.4-.97-.27-.27-.59-.4-.97-.4h-.8c-.41,0-.74,.13-1.01,.4s-.4,.59-.4,.97v2.77h2.2c.38,0,.7-.13,.97-.4,.27-.27,.4-.59,.4-.97v-1.41Z"/><path class="cls-1" d="M77.9,24.97h9.08v3.53h-12.62V1.9h3.53V24.97Z"/><path class="cls-1" d="M98.65,9.5c.76,0,1.41,.27,1.96,.82s.82,1.2,.82,1.96V28.5h-7.94c-.76,0-1.41-.27-1.96-.8s-.82-1.19-.82-1.98v-5.74c0-.76,.27-1.41,.82-1.96s1.2-.82,1.96-.82h2.96c.41,0,.74-.13,1.01-.4,.27-.27,.4-.59,.4-.97v-1.41c0-.38-.13-.7-.4-.97-.27-.27-.6-.4-1.01-.4h-4.1l.8-3.57h5.51Zm-3,15.43h2.2v-4.14h-2.2c-.38,0-.7,.13-.97,.4-.27,.27-.4,.59-.4,.97v1.41c0,.38,.13,.7,.4,.97,.27,.27,.59,.4,.97,.4Z"/><path class="cls-1" d="M108.95,28.5h-3.57V9.5h7.94c.76,0,1.41,.27,1.96,.8,.54,.53,.82,1.18,.82,1.94V28.5h-3.57V14.44c0-.38-.13-.7-.4-.97-.27-.27-.59-.4-.97-.4h-2.2v15.43Z"/><path class="cls-1" d="M127.19,.84l3.57-.84V28.5h-7.94c-.79,0-1.44-.27-1.98-.8-.53-.53-.8-1.19-.8-1.98V12.27c0-.79,.27-1.44,.8-1.98,.53-.53,1.19-.8,1.98-.8h4.37V.84Zm-3.57,22.72c0,.36,.14,.67,.42,.95,.28,.28,.59,.42,.95,.42h2.2V13.07h-2.2c-.38,0-.7,.13-.97,.4s-.4,.59-.4,.97v9.12Z"/><path class="cls-1" d="M145.24,15.43h-3.57v-.99c0-.38-.13-.7-.4-.97-.27-.27-.59-.4-.97-.4h-.8c-.38,0-.71,.13-.99,.4-.28,.27-.42,.59-.42,.97v1.41c0,.38,.14,.7,.42,.97,.28,.27,.61,.4,.99,.4h3c.76,0,1.41,.27,1.94,.82s.8,1.2,.8,1.96v5.89c-.05,.74-.34,1.36-.87,1.86s-1.15,.76-1.86,.76h-5.21c-.76,0-1.41-.27-1.94-.82-.53-.54-.8-1.2-.8-1.96v-3.15h3.53v.99c0,.38,.14,.7,.42,.97,.28,.27,.61,.4,.99,.4h.8c.38,0,.7-.13,.97-.4,.27-.27,.4-.59,.4-.97v-1.41c0-.38-.13-.7-.4-.97-.27-.27-.59-.4-.97-.4h-3c-.76,0-1.41-.27-1.94-.82-.53-.54-.8-1.2-.8-1.96v-5.74c0-.76,.27-1.41,.8-1.96s1.18-.82,1.94-.82h5.21c.76,0,1.41,.27,1.94,.82s.8,1.2,.8,1.96v3.15Z"/></g></svg>