<?xml version="1.0" encoding="UTF-8"?><svg id="Layer_1" xmlns="http://www.w3.org/2000/svg" viewBox="0 0 31.5 31.5"><defs><style>.cls-1{fill:#fff;}</style></defs><path id="Icon_awesome-twitter-square" class="cls-1" d="M28.12,0H3.38C1.51,0,0,1.51,0,3.38V28.12c0,1.86,1.51,3.37,3.38,3.38H28.12c1.86,0,3.37-1.51,3.38-3.38V3.38c0-1.86-1.51-3.37-3.38-3.38Zm-3.44,11.17c.01,.2,.01,.4,.01,.6,.05,7.2-5.74,13.07-12.94,13.12-.06,0-.12,0-.18,0-2.51,0-4.97-.71-7.08-2.07,.37,.04,.74,.06,1.11,.06,2.07,0,4.09-.69,5.72-1.97-1.97-.04-3.7-1.32-4.31-3.2,.69,.12,1.4,.09,2.08-.08-2.15-.44-3.7-2.33-3.69-4.53v-.06c.64,.36,1.35,.56,2.09,.59-1.29-.85-2.06-2.3-2.06-3.84,0-.82,.21-1.62,.63-2.33,2.34,2.88,5.8,4.64,9.51,4.82-.58-2.49,.97-4.97,3.45-5.55,1.6-.37,3.29,.14,4.41,1.34,1.03-.2,2.02-.57,2.93-1.11-.34,1.06-1.06,1.97-2.02,2.54,.92-.1,1.81-.34,2.66-.71-.63,.92-1.41,1.73-2.31,2.39Z"/></svg>