<?xml version="1.0" encoding="UTF-8"?><svg id="Layer_1" xmlns="http://www.w3.org/2000/svg" viewBox="0 0 272 93"><defs><style>.cls-1{fill:#fff;}.cls-2{isolation:isolate;}.cls-3{fill:#af7627;}</style></defs><g id="Logo"><g id="Logo_BG"><path class="cls-3" d="M271,92H1V1H271V92Z"/><path d="M2,2V91H270V2H2M0,0H272V93H0V0Z"/></g><g class="cls-2"><path class="cls-1" d="M42.51,20.8h6.07v46.2h-6.07v-22.51h-12.28v22.51h-6.14V20.8h6.14v17.56h12.28V20.8Z"/><path class="cls-1" d="M69.63,34c1.32,0,2.44,.47,3.37,1.42,.92,.95,1.39,2.08,1.39,3.4v23.36c0,1.32-.46,2.45-1.39,3.4-.92,.95-2.04,1.42-3.37,1.42h-8.98c-1.36,0-2.51-.47-3.43-1.42-.92-.95-1.39-2.08-1.39-3.4v-23.36c0-1.32,.46-2.45,1.39-3.4,.92-.95,2.07-1.42,3.43-1.42h8.98Zm-1.39,24.42v-15.84c0-.66-.24-1.22-.73-1.68-.49-.46-1.06-.69-1.72-.69h-1.39c-.66,0-1.22,.23-1.68,.69-.46,.46-.69,1.02-.69,1.68v15.84c0,.66,.23,1.22,.69,1.68,.46,.46,1.02,.69,1.68,.69h1.39c.66,0,1.23-.23,1.72-.69,.48-.46,.73-1.02,.73-1.68Z"/><path class="cls-1" d="M105.73,34c1.32,0,2.44,.47,3.37,1.42,.92,.95,1.39,2.08,1.39,3.4v28.18h-6.14v-24.42c0-.66-.24-1.22-.73-1.68-.49-.46-1.06-.69-1.72-.69h-3.76v26.8h-6.21v-24.42c0-.66-.24-1.22-.73-1.68-.49-.46-1.06-.69-1.72-.69h-3.76v26.8h-6.21V34h26.2Z"/><path class="cls-1" d="M133.32,48.78c0,1.32-.46,2.45-1.39,3.4-.92,.95-2.07,1.42-3.43,1.42h-7.59v4.82c0,.66,.23,1.22,.69,1.68,.46,.46,1.04,.69,1.75,.69h8.58l1.39,6.2h-13.79c-1.32,0-2.45-.47-3.4-1.42-.95-.95-1.42-2.08-1.42-3.4v-23.43c0-1.32,.47-2.44,1.42-3.37,.95-.92,2.08-1.39,3.4-1.39h8.98c1.36,0,2.51,.46,3.43,1.39s1.39,2.05,1.39,3.37v10.03Zm-6.21-6.2c0-.66-.23-1.22-.69-1.68-.46-.46-1.02-.69-1.68-.69h-1.39c-.7,0-1.29,.23-1.75,.69-.46,.46-.69,1.02-.69,1.68v4.82h3.83c.66,0,1.22-.23,1.68-.69s.69-1.02,.69-1.68v-2.44Z"/><path class="cls-1" d="M146.19,60.86h15.77v6.14h-21.91V20.8h6.14V60.86Z"/><path class="cls-1" d="M178.93,34c1.32,0,2.45,.47,3.4,1.42,.95,.95,1.42,2.08,1.42,3.4v28.18h-13.79c-1.32,0-2.45-.46-3.4-1.39s-1.42-2.07-1.42-3.43v-9.97c0-1.32,.47-2.45,1.42-3.4s2.08-1.42,3.4-1.42h5.15c.7,0,1.29-.23,1.75-.69,.46-.46,.69-1.02,.69-1.68v-2.44c0-.66-.23-1.22-.69-1.68-.46-.46-1.05-.69-1.75-.69h-7.13l1.38-6.2h9.57Zm-5.21,26.8h3.83v-7.19h-3.83c-.66,0-1.22,.23-1.68,.69s-.69,1.02-.69,1.68v2.44c0,.66,.23,1.22,.69,1.68,.46,.46,1.02,.69,1.68,.69Z"/><path class="cls-1" d="M193.51,67h-6.2V34h13.79c1.32,0,2.45,.46,3.4,1.39,.95,.92,1.42,2.05,1.42,3.37v28.25h-6.2v-24.42c0-.66-.23-1.22-.69-1.68-.46-.46-1.02-.69-1.68-.69h-3.83v26.8Z"/><path class="cls-1" d="M221.89,18.95l6.21-1.45v49.5h-13.79c-1.36,0-2.51-.46-3.43-1.39s-1.39-2.07-1.39-3.43v-23.36c0-1.36,.46-2.51,1.39-3.43s2.07-1.39,3.43-1.39h7.59v-15.05Zm-6.2,39.47c0,.62,.24,1.17,.73,1.65,.48,.48,1.03,.73,1.65,.73h3.83v-20.59h-3.83c-.66,0-1.22,.23-1.68,.69-.46,.46-.69,1.02-.69,1.68v15.84Z"/><path class="cls-1" d="M249.94,44.3h-6.2v-1.72c0-.66-.23-1.22-.69-1.68-.46-.46-1.02-.69-1.68-.69h-1.39c-.66,0-1.23,.23-1.72,.69-.48,.46-.73,1.02-.73,1.68v2.44c0,.66,.24,1.22,.73,1.68,.48,.46,1.06,.69,1.72,.69h5.21c1.32,0,2.44,.47,3.37,1.42,.92,.95,1.39,2.08,1.39,3.4v10.23c-.09,1.28-.59,2.35-1.52,3.23-.92,.88-2,1.32-3.23,1.32h-9.04c-1.32,0-2.44-.47-3.37-1.42-.92-.95-1.39-2.08-1.39-3.4v-5.48h6.14v1.72c0,.66,.24,1.22,.73,1.68,.48,.46,1.06,.69,1.72,.69h1.39c.66,0,1.22-.23,1.68-.69,.46-.46,.69-1.02,.69-1.68v-2.44c0-.66-.23-1.22-.69-1.68-.46-.46-1.02-.69-1.68-.69h-5.21c-1.32,0-2.44-.47-3.37-1.42-.92-.95-1.39-2.08-1.39-3.4v-9.97c0-1.32,.46-2.45,1.39-3.4,.92-.95,2.05-1.42,3.37-1.42h9.04c1.32,0,2.44,.47,3.37,1.42,.92,.95,1.39,2.08,1.39,3.4v5.48Z"/></g></g></svg>